<svg width="32" height="32" viewBox="0 0 32 32" fill="none" xmlns="http://www.w3.org/2000/svg">
<path opacity="0.4" d="M21.587 2.66602H10.4137C5.56033 2.66602 2.66699 5.55935 2.66699 10.4127V21.5727C2.66699 26.4393 5.56033 29.3327 10.4137 29.3327H21.5737C26.427 29.3327 29.3203 26.4393 29.3203 21.586V10.4127C29.3337 5.55935 26.4403 2.66602 21.587 2.66602Z" fill="#292D32"/>
<path d="M15.9985 21.1728C18.8557 21.1728 21.1718 18.8567 21.1718 15.9995C21.1718 13.1423 18.8557 10.8262 15.9985 10.8262C13.1414 10.8262 10.8252 13.1423 10.8252 15.9995C10.8252 18.8567 13.1414 21.1728 15.9985 21.1728Z" fill="#292D32"/>
<path d="M22.6663 9.99987C22.3063 9.99987 21.973 9.86654 21.7197 9.61321C21.5997 9.47987 21.5063 9.33321 21.4397 9.17321C21.373 9.01321 21.333 8.83987 21.333 8.66654C21.333 8.49321 21.373 8.31987 21.4397 8.15987C21.5063 7.98654 21.5997 7.85321 21.7197 7.71987C22.0263 7.41321 22.493 7.26654 22.9197 7.35987C23.013 7.37321 23.093 7.39987 23.173 7.43987C23.253 7.46654 23.333 7.50654 23.413 7.55987C23.4797 7.59987 23.5463 7.66654 23.613 7.71987C23.733 7.85321 23.8263 7.98654 23.893 8.15987C23.9597 8.31987 23.9997 8.49321 23.9997 8.66654C23.9997 8.83987 23.9597 9.01321 23.893 9.17321C23.8263 9.33321 23.733 9.47987 23.613 9.61321C23.4797 9.73321 23.333 9.82654 23.173 9.89321C23.013 9.95987 22.8397 9.99987 22.6663 9.99987Z" fill="#292D32"/>
</svg>
