<svg width="102" height="43" viewBox="0 0 102 43" fill="none" xmlns="http://www.w3.org/2000/svg">
<path d="M75.2354 26.313H83.5117L79.1465 38.1782C78.5752 39.687 80.1425 40.4926 81.1387 39.2621L94.4394 22.6216C94.6885 22.314 94.8203 22.021 94.8203 21.6841C94.8203 21.1274 94.3955 20.688 93.7803 20.688H85.4892L89.8692 8.82271C90.4257 7.31396 88.873 6.50827 87.8769 7.7534L74.5762 24.3794C74.3271 24.7016 74.1807 24.9946 74.1807 25.3169C74.1807 25.8881 74.6201 26.313 75.2354 26.313Z" fill="url(#paint0_linear_60_2)"/>
<path d="M7.56 36.288C5.448 36.288 3.744 35.676 2.448 34.452C1.152 33.204 0.504 31.56 0.504 29.52V27.036C0.504 26.916 0.54 26.82 0.612 26.748C0.708 26.652 0.816 26.604 0.936 26.604H5.148C5.268 26.604 5.364 26.652 5.436 26.748C5.532 26.82 5.58 26.916 5.58 27.036V29.592C5.58 30.288 5.76 30.852 6.12 31.284C6.48 31.716 6.96 31.932 7.56 31.932C8.184 31.932 8.676 31.716 9.036 31.284C9.42 30.852 9.612 30.288 9.612 29.592V11.232C9.612 11.112 9.648 11.016 9.72 10.944C9.816 10.848 9.924 10.8 10.044 10.8H14.256C14.376 10.8 14.472 10.848 14.544 10.944C14.64 11.016 14.688 11.112 14.688 11.232V29.52C14.688 31.56 14.028 33.204 12.708 34.452C11.412 35.676 9.696 36.288 7.56 36.288ZM27.9532 36C27.6652 36 27.5092 35.868 27.4852 35.604L26.9092 32.148C26.9092 32.028 26.8372 31.968 26.6932 31.968H22.1212C21.9772 31.968 21.9052 32.028 21.9052 32.148L21.3292 35.604C21.3052 35.868 21.1492 36 20.8612 36H16.6492C16.3372 36 16.2172 35.844 16.2892 35.532L21.5812 11.196C21.6292 10.932 21.7852 10.8 22.0492 10.8H26.9092C27.1732 10.8 27.3292 10.932 27.3772 11.196L32.6332 35.532L32.6692 35.676C32.6692 35.892 32.5372 36 32.2732 36H27.9532ZM22.6252 27.864C22.6252 27.984 22.6732 28.044 22.7692 28.044H26.0092C26.1292 28.044 26.1772 27.984 26.1532 27.864L24.4612 18.036C24.4372 17.964 24.4012 17.928 24.3532 17.928C24.3052 17.928 24.2692 17.964 24.2452 18.036L22.6252 27.864ZM42.4043 10.764C43.7243 10.764 44.9003 11.088 45.9323 11.736C46.9643 12.384 47.7563 13.296 48.3083 14.472C48.8843 15.624 49.1723 16.944 49.1723 18.432C49.1723 20.664 48.5723 22.452 47.3723 23.796C46.1723 25.14 44.6003 25.812 42.6563 25.812H39.9563C39.8363 25.812 39.7763 25.872 39.7763 25.992V35.568C39.7763 35.688 39.7283 35.796 39.6323 35.892C39.5603 35.964 39.4643 36 39.3443 36H35.1323C35.0123 36 34.9043 35.964 34.8083 35.892C34.7363 35.796 34.7003 35.688 34.7003 35.568V11.196C34.7003 11.076 34.7363 10.98 34.8083 10.908C34.9043 10.812 35.0123 10.764 35.1323 10.764H42.4043ZM41.5403 21.852C42.3083 21.852 42.9203 21.564 43.3763 20.988C43.8563 20.388 44.0963 19.572 44.0963 18.54C44.0963 17.484 43.8563 16.656 43.3763 16.056C42.9203 15.456 42.3083 15.156 41.5403 15.156H39.9563C39.8363 15.156 39.7763 15.216 39.7763 15.336V21.672C39.7763 21.792 39.8363 21.852 39.9563 21.852H41.5403ZM60.8243 36C60.5363 36 60.3803 35.868 60.3563 35.604L59.7803 32.148C59.7803 32.028 59.7083 31.968 59.5643 31.968H54.9923C54.8483 31.968 54.7763 32.028 54.7763 32.148L54.2003 35.604C54.1763 35.868 54.0203 36 53.7323 36H49.5203C49.2083 36 49.0883 35.844 49.1603 35.532L54.4523 11.196C54.5003 10.932 54.6563 10.8 54.9203 10.8H59.7803C60.0443 10.8 60.2003 10.932 60.2483 11.196L65.5043 35.532L65.5403 35.676C65.5403 35.892 65.4083 36 65.1443 36H60.8243ZM55.4963 27.864C55.4963 27.984 55.5443 28.044 55.6403 28.044H58.8803C59.0003 28.044 59.0483 27.984 59.0243 27.864L57.3323 18.036C57.3083 17.964 57.2723 17.928 57.2243 17.928C57.1763 17.928 57.1403 17.964 57.1163 18.036L55.4963 27.864Z" fill="url(#paint1_linear_60_2)"/>
<defs>
<linearGradient id="paint0_linear_60_2" x1="84.5005" y1="7.1416" x2="84.5005" y2="39.8635" gradientUnits="userSpaceOnUse">
<stop stop-color="#FF8103"/>
<stop offset="1" stop-color="#FFC61B"/>
</linearGradient>
<linearGradient id="paint1_linear_60_2" x1="23" y1="15.5" x2="67" y2="43" gradientUnits="userSpaceOnUse">
<stop stop-color="white"/>
<stop offset="1" stop-color="#DAE2F9"/>
</linearGradient>
</defs>
</svg>
