<svg width="41" height="41" viewBox="0 0 41 41" fill="none" xmlns="http://www.w3.org/2000/svg">
<path d="M15.2712 31.9541C12.0066 31.9541 8.96619 30.997 6.40625 29.3506C7.92028 29.5345 9.45571 29.4179 10.9246 29.0074C12.3935 28.5969 13.7669 27.9007 14.9663 26.9585C13.7591 26.9364 12.5892 26.5369 11.6206 25.816C10.6521 25.0952 9.93354 24.0892 9.56581 22.9392C9.91944 23.0084 10.282 23.0443 10.6523 23.0443C11.1802 23.0443 11.6927 22.9725 12.1808 22.8444C10.8722 22.5794 9.69541 21.8702 8.8497 20.837C8.00399 19.8038 7.54136 18.5101 7.54016 17.1749V17.0993C8.34191 17.5459 9.23912 17.7938 10.1565 17.8219C9.36379 17.2938 8.71406 16.5778 8.26518 15.7377C7.81629 14.8976 7.58219 13.9595 7.58372 13.007C7.58372 11.9512 7.872 10.9544 8.36784 10.1011C9.81987 11.8876 11.6315 13.3487 13.685 14.3895C15.7385 15.4303 17.988 16.0274 20.2873 16.1422C19.9992 14.9023 20.1279 13.6021 20.6535 12.4428C21.1791 11.2834 22.0722 10.3297 23.1945 9.72928C24.3169 9.12884 25.6059 8.91517 26.862 9.12136C28.1181 9.32756 29.2712 9.9421 30.1427 10.8698C31.4372 10.6136 32.6788 10.1397 33.8148 9.46816C33.3826 10.8071 32.48 11.9441 31.274 12.6687C32.42 12.5319 33.5393 12.2253 34.595 11.759C33.8165 12.9188 32.8398 13.9324 31.7097 14.7533C31.7199 15.0006 31.7276 15.2504 31.7276 15.5003C31.7263 23.1391 25.9082 31.9554 15.2712 31.9541Z" fill="#27CAEA"/>
</svg>
