<svg width="60" height="60" viewBox="0 0 60 60" fill="none" xmlns="http://www.w3.org/2000/svg">
<path d="M49.175 20.35C48.9528 19.4932 48.507 18.7108 47.8833 18.0827C47.2595 17.4546 46.4803 17.0033 45.625 16.775C40.44 16.1634 35.2208 15.8879 30 15.95C24.7794 15.8879 19.5601 16.1634 14.375 16.775C13.5198 17.0033 12.7406 17.4546 12.1169 18.0827C11.4931 18.7108 11.0474 19.4932 10.825 20.35C10.2571 23.5348 9.98092 26.7649 10 29.9999C9.97997 33.2517 10.2561 36.4984 10.825 39.6999C11.0589 40.5429 11.5098 41.3097 12.1327 41.9239C12.7557 42.5382 13.5288 42.9782 14.375 43.2C19.5601 43.8115 24.7794 44.0872 30 44.025C35.2208 44.0872 40.44 43.8115 45.625 43.2C46.4713 42.9782 47.2445 42.5382 47.8673 41.9239C48.4903 41.3097 48.9413 40.5429 49.175 39.6999C49.744 36.4984 50.02 33.2517 50 29.9999C50.0193 26.7649 49.743 23.5348 49.175 20.35ZM25.9 35.9749V24.075L36.375 29.9999L25.9 35.9499V35.9749Z" fill="#FF6347"/>
</svg>
